<svg width="347" height="103" viewBox="0 0 347 103" fill="none" xmlns="http://www.w3.org/2000/svg">
<path d="M92.0156 56.5625H96.6406V58.125C97.7969 57.4167 98.9219 56.9271 100.016 56.6562C101.12 56.375 102.198 56.2344 103.25 56.2344C104.719 56.2344 106.068 56.4688 107.297 56.9375C108.526 57.4062 109.578 58.1146 110.453 59.0625C111.13 58.5417 111.797 58.1042 112.453 57.75C113.109 57.3854 113.766 57.0938 114.422 56.875C115.078 56.6458 115.745 56.4844 116.422 56.3906C117.099 56.2865 117.797 56.2344 118.516 56.2344C120.026 56.2344 121.396 56.4427 122.625 56.8594C123.854 57.2656 124.901 57.875 125.766 58.6875C126.641 59.5 127.312 60.5156 127.781 61.7344C128.26 62.9427 128.5 64.3438 128.5 65.9375V75H123.891V66.6875C123.891 65.6771 123.745 64.776 123.453 63.9844C123.172 63.1823 122.771 62.5104 122.25 61.9688C121.74 61.4167 121.125 61 120.406 60.7188C119.698 60.4271 118.917 60.2812 118.062 60.2812C117.594 60.2812 117.115 60.3281 116.625 60.4219C116.135 60.5052 115.656 60.6406 115.188 60.8281C114.729 61.0156 114.297 61.2552 113.891 61.5469C113.484 61.8281 113.13 62.1615 112.828 62.5469V75H108.219V66.6875C108.219 65.6771 108.073 64.776 107.781 63.9844C107.5 63.1823 107.099 62.5104 106.578 61.9688C106.068 61.4167 105.448 61 104.719 60.7188C104 60.4271 103.208 60.2812 102.344 60.2812C101.812 60.2812 101.276 60.3385 100.734 60.4531C100.203 60.5573 99.6875 60.7083 99.1875 60.9062C98.6979 61.1042 98.2344 61.3438 97.7969 61.625C97.3698 61.9062 96.9844 62.224 96.6406 62.5781V75H92.0156V56.5625ZM133.453 69.1875C133.453 68.3021 133.646 67.4948 134.031 66.7656C134.417 66.0365 134.995 65.4115 135.766 64.8906C136.536 64.3594 137.495 63.9531 138.641 63.6719C139.797 63.3802 141.141 63.2344 142.672 63.2344C143.807 63.2344 145 63.3177 146.25 63.4844C147.51 63.651 148.807 63.9062 150.141 64.25C150.089 63.6667 149.911 63.1302 149.609 62.6406C149.307 62.1406 148.885 61.7135 148.344 61.3594C147.812 60.9948 147.167 60.7135 146.406 60.5156C145.656 60.3177 144.802 60.2188 143.844 60.2188C143.323 60.2188 142.75 60.25 142.125 60.3125C141.5 60.375 140.854 60.4688 140.188 60.5938C139.521 60.7188 138.859 60.875 138.203 61.0625C137.557 61.25 136.953 61.474 136.391 61.7344L134.984 57.9375C135.682 57.6875 136.427 57.4583 137.219 57.25C138.021 57.0417 138.839 56.8646 139.672 56.7188C140.505 56.5625 141.339 56.4427 142.172 56.3594C143.005 56.276 143.812 56.2344 144.594 56.2344C148.042 56.2344 150.604 57.1146 152.281 58.875C153.958 60.6354 154.797 63.3333 154.797 66.9688V75H150.172V73.2656C149.693 73.5469 149.167 73.8125 148.594 74.0625C148.031 74.3125 147.417 74.5312 146.75 74.7188C146.083 74.9062 145.365 75.0521 144.594 75.1562C143.833 75.2708 143.026 75.3281 142.172 75.3281C140.734 75.3281 139.469 75.1719 138.375 74.8594C137.292 74.5469 136.385 74.1146 135.656 73.5625C134.927 73.0104 134.375 72.3646 134 71.625C133.635 70.875 133.453 70.0625 133.453 69.1875ZM138.328 69.0312C138.328 69.3333 138.406 69.625 138.562 69.9062C138.719 70.1771 138.969 70.4219 139.312 70.6406C139.656 70.849 140.094 71.0208 140.625 71.1562C141.167 71.2812 141.818 71.3438 142.578 71.3438C143.391 71.3438 144.177 71.2708 144.938 71.125C145.698 70.9792 146.406 70.7865 147.062 70.5469C147.719 70.3073 148.312 70.0312 148.844 69.7188C149.375 69.4062 149.818 69.0833 150.172 68.75V67.9375C149.464 67.7396 148.76 67.5729 148.062 67.4375C147.375 67.3021 146.714 67.1979 146.078 67.125C145.453 67.0417 144.859 66.9844 144.297 66.9531C143.745 66.9219 143.26 66.9062 142.844 66.9062C141.979 66.9062 141.26 66.9635 140.688 67.0781C140.115 67.1927 139.651 67.349 139.297 67.5469C138.943 67.7344 138.693 67.9583 138.547 68.2188C138.401 68.4792 138.328 68.75 138.328 69.0312ZM160.922 56.5625H165.547V59.2188C166.568 58.4583 167.646 57.8021 168.781 57.25C169.917 56.6979 171.047 56.276 172.172 55.9844L173.531 60.2188C171.75 60.3958 170.182 60.7969 168.828 61.4219C167.484 62.0365 166.391 62.9062 165.547 64.0312V75H160.922V56.5625ZM177 49.0781H181.625V64.3906L190.25 56.5625H197.328L187.688 65.1875L197.938 75H191L184.141 68.3594L181.625 70.6094V75H177V49.0781ZM200.109 65.7188C200.109 64.4688 200.365 63.276 200.875 62.1406C201.385 60.9948 202.12 59.9844 203.078 59.1094C204.036 58.2344 205.208 57.5365 206.594 57.0156C207.99 56.4948 209.573 56.2344 211.344 56.2344C213.104 56.2344 214.688 56.5 216.094 57.0312C217.51 57.5521 218.708 58.2708 219.688 59.1875C220.677 60.1042 221.432 61.1823 221.953 62.4219C222.484 63.6615 222.75 64.9896 222.75 66.4062C222.75 66.5833 222.745 66.776 222.734 66.9844C222.734 67.1823 222.724 67.3646 222.703 67.5312H205.266C205.464 68.0833 205.781 68.5885 206.219 69.0469C206.667 69.5052 207.224 69.901 207.891 70.2344C208.557 70.5677 209.328 70.8281 210.203 71.0156C211.078 71.1927 212.047 71.2812 213.109 71.2812C214.172 71.2812 215.229 71.1719 216.281 70.9531C217.333 70.724 218.339 70.4375 219.297 70.0938L220.859 73.625C220.255 73.9062 219.641 74.1562 219.016 74.375C218.401 74.5833 217.755 74.7604 217.078 74.9062C216.411 75.0417 215.708 75.1458 214.969 75.2188C214.24 75.2917 213.469 75.3281 212.656 75.3281C210.583 75.3281 208.766 75.0781 207.203 74.5781C205.641 74.0781 204.333 73.3958 203.281 72.5312C202.229 71.6667 201.438 70.651 200.906 69.4844C200.375 68.3177 200.109 67.0625 200.109 65.7188ZM217.844 63.9219C217.677 63.4115 217.417 62.9375 217.062 62.5C216.719 62.0521 216.286 61.6667 215.766 61.3438C215.245 61.0104 214.641 60.75 213.953 60.5625C213.266 60.375 212.51 60.2812 211.688 60.2812C210.812 60.2812 210.016 60.3802 209.297 60.5781C208.578 60.776 207.948 61.0417 207.406 61.375C206.865 61.7083 206.411 62.0938 206.047 62.5312C205.693 62.9688 205.432 63.4323 205.266 63.9219H217.844ZM230.516 60.0312H226.062V56.5625H230.516V50.8281H235.141V56.5625H239.594V60.0312H235.141V75H230.516V60.0312ZM243.797 72.2969C243.797 71.8802 243.88 71.4896 244.047 71.125C244.224 70.75 244.474 70.4271 244.797 70.1562C245.12 69.875 245.51 69.6562 245.969 69.5C246.427 69.3438 246.943 69.2656 247.516 69.2656C248.089 69.2656 248.604 69.3438 249.062 69.5C249.521 69.6562 249.906 69.875 250.219 70.1562C250.542 70.4271 250.786 70.75 250.953 71.125C251.13 71.4896 251.219 71.8802 251.219 72.2969C251.219 72.7135 251.13 73.1094 250.953 73.4844C250.786 73.849 250.542 74.1667 250.219 74.4375C249.906 74.7083 249.521 74.9219 249.062 75.0781C248.604 75.2448 248.089 75.3281 247.516 75.3281C246.943 75.3281 246.427 75.2448 245.969 75.0781C245.51 74.9219 245.12 74.7083 244.797 74.4375C244.474 74.1667 244.224 73.849 244.047 73.4844C243.88 73.1094 243.797 72.7135 243.797 72.2969ZM257.234 56.5625H261.859V58.125C263.016 57.4167 264.141 56.9271 265.234 56.6562C266.339 56.375 267.417 56.2344 268.469 56.2344C269.938 56.2344 271.286 56.4688 272.516 56.9375C273.745 57.4062 274.797 58.1146 275.672 59.0625C276.349 58.5417 277.016 58.1042 277.672 57.75C278.328 57.3854 278.984 57.0938 279.641 56.875C280.297 56.6458 280.964 56.4844 281.641 56.3906C282.318 56.2865 283.016 56.2344 283.734 56.2344C285.245 56.2344 286.615 56.4427 287.844 56.8594C289.073 57.2656 290.12 57.875 290.984 58.6875C291.859 59.5 292.531 60.5156 293 61.7344C293.479 62.9427 293.719 64.3438 293.719 65.9375V75H289.109V66.6875C289.109 65.6771 288.964 64.776 288.672 63.9844C288.391 63.1823 287.99 62.5104 287.469 61.9688C286.958 61.4167 286.344 61 285.625 60.7188C284.917 60.4271 284.135 60.2812 283.281 60.2812C282.812 60.2812 282.333 60.3281 281.844 60.4219C281.354 60.5052 280.875 60.6406 280.406 60.8281C279.948 61.0156 279.516 61.2552 279.109 61.5469C278.703 61.8281 278.349 62.1615 278.047 62.5469V75H273.438V66.6875C273.438 65.6771 273.292 64.776 273 63.9844C272.719 63.1823 272.318 62.5104 271.797 61.9688C271.286 61.4167 270.667 61 269.938 60.7188C269.219 60.4271 268.427 60.2812 267.562 60.2812C267.031 60.2812 266.495 60.3385 265.953 60.4531C265.422 60.5573 264.906 60.7083 264.406 60.9062C263.917 61.1042 263.453 61.3438 263.016 61.625C262.589 61.9062 262.203 62.224 261.859 62.5781V75H257.234V56.5625ZM298.125 65.8594C298.125 64.3906 298.401 63.0677 298.953 61.8906C299.505 60.7031 300.266 59.6927 301.234 58.8594C302.214 58.0156 303.37 57.3698 304.703 56.9219C306.047 56.4635 307.5 56.2344 309.062 56.2344C309.729 56.2344 310.385 56.276 311.031 56.3594C311.688 56.4427 312.312 56.5573 312.906 56.7031C313.51 56.849 314.073 57.026 314.594 57.2344C315.125 57.4323 315.594 57.651 316 57.8906V49.0781H320.625V75H316V73.2656C315.594 73.5469 315.115 73.8125 314.562 74.0625C314.01 74.3125 313.417 74.5312 312.781 74.7188C312.146 74.9062 311.484 75.0521 310.797 75.1562C310.12 75.2708 309.448 75.3281 308.781 75.3281C307.219 75.3281 305.781 75.099 304.469 74.6406C303.167 74.1823 302.047 73.5365 301.109 72.7031C300.172 71.8698 299.438 70.875 298.906 69.7188C298.385 68.5521 298.125 67.2656 298.125 65.8594ZM302.984 65.8594C302.984 66.599 303.13 67.2969 303.422 67.9531C303.724 68.6094 304.151 69.1875 304.703 69.6875C305.266 70.1771 305.938 70.5677 306.719 70.8594C307.51 71.1406 308.396 71.2812 309.375 71.2812C310 71.2812 310.625 71.224 311.25 71.1094C311.875 70.9844 312.474 70.8125 313.047 70.5938C313.63 70.375 314.172 70.1094 314.672 69.7969C315.182 69.4844 315.625 69.1354 316 68.75V62.3594C315.531 61.9844 315.036 61.6667 314.516 61.4062C313.995 61.1458 313.464 60.9323 312.922 60.7656C312.38 60.599 311.833 60.4792 311.281 60.4062C310.729 60.3229 310.193 60.2812 309.672 60.2812C308.609 60.2812 307.661 60.4271 306.828 60.7188C306.005 61 305.307 61.3906 304.734 61.8906C304.172 62.3906 303.74 62.9792 303.438 63.6562C303.135 64.3333 302.984 65.0677 302.984 65.8594Z" fill="white"/>
<g clip-path="url(#clip0_37_2)">
<path d="M29 41C29 35.4772 33.4772 31 39 31H71C76.5228 31 81 35.4772 81 41V73C81 78.5228 76.5228 83 71 83H39C33.4772 83 29 78.5228 29 73V41Z" fill="#A625A8"/>
<rect x="21" y="37" width="52" height="52" rx="10" fill="#38045E"/>
<path d="M60 37.5C60 32.8587 58.6304 28.4075 56.1924 25.1256C53.7544 21.8437 50.4478 20 47 20C43.5522 20 40.2456 21.8437 37.8076 25.1256C35.3696 28.4075 34 32.8587 34 37.5H36.5012C36.5012 33.7517 37.6073 30.1569 39.5762 27.5064C41.5451 24.856 44.2155 23.367 47 23.367C49.7845 23.367 52.4549 24.856 54.4238 27.5064C56.3927 30.1569 57.4988 33.7517 57.4988 37.5H60Z" fill="#38045D"/>
<path d="M68 31.5C68 26.8587 66.6304 22.4075 64.1924 19.1256C61.7544 15.8437 58.4478 14 55 14C51.5522 14 48.2456 15.8437 45.8076 19.1256C43.3696 22.4075 42 26.8587 42 31.5H44.5012C44.5012 27.7517 45.6073 24.1569 47.5762 21.5064C49.5451 18.856 52.2155 17.367 55 17.367C57.7845 17.367 60.4549 18.856 62.4238 21.5064C64.3927 24.1569 65.4988 27.7517 65.4988 31.5H68Z" fill="#A525A8"/>
<path d="M31.6719 60.0312H27.2188V56.5625H31.6719V50.8281H36.2969V56.5625H40.75V60.0312H36.2969V75H31.6719V60.0312ZM43.4375 65.8594C43.4375 64.3906 43.7135 63.0677 44.2656 61.8906C44.8177 60.7031 45.5781 59.6927 46.5469 58.8594C47.526 58.0156 48.6823 57.3698 50.0156 56.9219C51.3594 56.4635 52.8125 56.2344 54.375 56.2344C55.0417 56.2344 55.6979 56.276 56.3438 56.3594C57 56.4427 57.625 56.5573 58.2188 56.7031C58.8229 56.849 59.3854 57.026 59.9062 57.2344C60.4375 57.4323 60.9062 57.651 61.3125 57.8906V49.0781H65.9375V75H61.3125V73.2656C60.9062 73.5469 60.4271 73.8125 59.875 74.0625C59.3229 74.3125 58.7292 74.5312 58.0938 74.7188C57.4583 74.9062 56.7969 75.0521 56.1094 75.1562C55.4323 75.2708 54.7604 75.3281 54.0938 75.3281C52.5312 75.3281 51.0938 75.099 49.7812 74.6406C48.4792 74.1823 47.3594 73.5365 46.4219 72.7031C45.4844 71.8698 44.75 70.875 44.2188 69.7188C43.6979 68.5521 43.4375 67.2656 43.4375 65.8594ZM48.2969 65.8594C48.2969 66.599 48.4427 67.2969 48.7344 67.9531C49.0365 68.6094 49.4635 69.1875 50.0156 69.6875C50.5781 70.1771 51.25 70.5677 52.0312 70.8594C52.8229 71.1406 53.7083 71.2812 54.6875 71.2812C55.3125 71.2812 55.9375 71.224 56.5625 71.1094C57.1875 70.9844 57.7865 70.8125 58.3594 70.5938C58.9427 70.375 59.4844 70.1094 59.9844 69.7969C60.4948 69.4844 60.9375 69.1354 61.3125 68.75V62.3594C60.8438 61.9844 60.349 61.6667 59.8281 61.4062C59.3073 61.1458 58.776 60.9323 58.2344 60.7656C57.6927 60.599 57.1458 60.4792 56.5938 60.4062C56.0417 60.3229 55.5052 60.2812 54.9844 60.2812C53.9219 60.2812 52.974 60.4271 52.1406 60.7188C51.3177 61 50.6198 61.3906 50.0469 61.8906C49.4844 62.3906 49.0521 62.9792 48.75 63.6562C48.4479 64.3333 48.2969 65.0677 48.2969 65.8594Z" fill="#F5F5F5"/>
</g>
<defs>
<clipPath id="clip0_37_2">
<rect width="65" height="75" fill="white" transform="translate(18 14)"/>
</clipPath>
</defs>
</svg>
