<svg width="17" height="18" viewBox="0 0 17 18" fill="none" xmlns="http://www.w3.org/2000/svg">
<path fill-rule="evenodd" clip-rule="evenodd" d="M8.06429 0.935547C3.61039 0.935547 0 4.54594 0 8.99983C0 13.4537 3.61039 17.0641 8.06429 17.0641C12.5182 17.0641 16.1286 13.4537 16.1286 8.99983C16.1286 4.54594 12.5182 0.935547 8.06429 0.935547ZM1.5 8.99983C1.5 5.37437 4.43882 2.43555 8.06429 2.43555C11.6898 2.43555 14.6286 5.37437 14.6286 8.99983C14.6286 12.6253 11.6898 15.5641 8.06429 15.5641C4.43882 15.5641 1.5 12.6253 1.5 8.99983ZM7.13209 9.74983L8.59462 11.2124C8.88751 11.5053 8.88751 11.9801 8.59462 12.273C8.30172 12.5659 7.82685 12.5659 7.53396 12.273L4.7911 9.53016C4.49821 9.23727 4.49821 8.7624 4.7911 8.4695L7.53396 5.72665C7.82685 5.43375 8.30172 5.43375 8.59462 5.72665C8.88751 6.01954 8.88751 6.49441 8.59462 6.78731L7.13209 8.24983H10.6243C11.0385 8.24983 11.3743 8.58562 11.3743 8.99983C11.3743 9.41405 11.0385 9.74983 10.6243 9.74983H7.13209Z" fill="#643ABE"/>
</svg>
