<svg width="16" height="19" viewBox="0 0 16 19" fill="none" xmlns="http://www.w3.org/2000/svg">
<path fill-rule="evenodd" clip-rule="evenodd" d="M4.1272 7.14335C4.1272 5.35398 5.30086 3.83445 6.91906 3.31388C7.71086 3.09525 8.5464 3.09169 9.33962 3.3032C10.974 3.81445 12.1704 5.34723 12.1704 7.14335V9.44166C12.1704 9.77435 12.2384 10.151 12.3303 10.486C12.4223 10.8217 12.5547 11.175 12.7161 11.4547L12.7159 11.4548L12.7232 11.4668L13.6371 12.9847L13.6373 12.985C13.9161 13.4502 13.6891 14.0506 13.186 14.2169L13.1837 14.2176C9.91092 15.3111 6.38042 15.3113 3.10755 14.2182C2.78377 14.1083 2.61246 13.9126 2.54269 13.7242C2.47317 13.5364 2.47571 13.2785 2.65199 12.9855L3.56643 11.4668L3.56811 11.4639C3.73667 11.1812 3.8722 10.825 3.96567 10.4882C4.05908 10.1517 4.1272 9.77458 4.1272 9.44166V7.14335ZM13.6704 7.14335C13.6704 4.81364 12.2107 2.81053 10.1602 2.00271C9.75541 1.31202 9.00545 0.850586 8.14903 0.850586C7.29395 0.850586 6.54499 1.31059 6.13975 1.99949C4.08482 2.804 2.6272 4.80539 2.6272 7.14335V9.44166C2.6272 9.59385 2.59193 9.82905 2.52033 10.087C2.44901 10.3439 2.35824 10.5637 2.28042 10.6946L2.27969 10.6959L1.36682 12.212L1.36671 12.2122C0.978353 12.8576 0.893412 13.5898 1.13603 14.245C1.37832 14.8994 1.91845 15.3993 2.62778 15.6394L2.63057 15.6403C3.47494 15.9224 4.33503 16.138 5.20344 16.2871C5.35878 16.7128 5.60578 17.1039 5.93203 17.4307L5.93243 17.4311C6.49635 17.995 7.28912 18.3506 8.14872 18.3506C9.49945 18.3506 10.6561 17.4878 11.0955 16.2855C11.9604 16.1365 12.8169 15.9216 13.6579 15.6407C15.0784 15.1703 15.6938 13.497 14.9234 12.213L14.9228 12.212L14.0123 10.6998C13.9358 10.5655 13.8469 10.3446 13.7769 10.0893C13.7057 9.82974 13.6704 9.59407 13.6704 9.44166V7.14335ZM9.14473 16.5091C8.48089 16.5473 7.81543 16.5475 7.15158 16.5094C7.42866 16.7224 7.77879 16.8506 8.14872 16.8506C8.52231 16.8506 8.86818 16.7229 9.14473 16.5091Z" fill="#6F6E71"/>
</svg>
