<svg width="22" height="22" viewBox="0 0 22 22" fill="none" xmlns="http://www.w3.org/2000/svg">
<path d="M1 1H2.78024C3.88522 1 4.75488 1.93 4.6628 3L3.8136 12.96C3.78044 13.3459 3.82965 13.7342 3.9581 14.1005C4.08655 14.4669 4.29145 14.8031 4.55981 15.0879C4.82817 15.3728 5.15413 15.6001 5.51706 15.7553C5.87998 15.9106 6.27195 15.9905 6.66813 15.99H17.5644C19.0377 15.99 20.3269 14.81 20.4394 13.38L20.9919 5.88C21.1147 4.22 19.8255 2.87 18.1169 2.87H4.90835M8.16189 7H20.4394M15.5796 21C15.9188 21 16.244 20.8683 16.4839 20.6339C16.7237 20.3995 16.8585 20.0815 16.8585 19.75C16.8585 19.4185 16.7237 19.1005 16.4839 18.8661C16.244 18.6317 15.9188 18.5 15.5796 18.5C15.2404 18.5 14.9151 18.6317 14.6752 18.8661C14.4354 19.1005 14.3007 19.4185 14.3007 19.75C14.3007 20.0815 14.4354 20.3995 14.6752 20.6339C14.9151 20.8683 15.2404 21 15.5796 21ZM7.39455 21C7.73373 21 8.05903 20.8683 8.29887 20.6339C8.53871 20.3995 8.67345 20.0815 8.67345 19.75C8.67345 19.4185 8.53871 19.1005 8.29887 18.8661C8.05903 18.6317 7.73373 18.5 7.39455 18.5C7.05536 18.5 6.73006 18.6317 6.49022 18.8661C6.25038 19.1005 6.11564 19.4185 6.11564 19.75C6.11564 20.0815 6.25038 20.3995 6.49022 20.6339C6.73006 20.8683 7.05536 21 7.39455 21V21Z" stroke="white" stroke-width="1.5" stroke-miterlimit="10" stroke-linecap="round" stroke-linejoin="round"/>
</svg>
