<svg width="19" height="18" viewBox="0 0 19 18" fill="none" xmlns="http://www.w3.org/2000/svg">
<path fill-rule="evenodd" clip-rule="evenodd" d="M14.8193 3.77171L17.5303 1.06066L16.4697 0L13.551 2.91869C12.2309 2.17636 10.7423 1.75872 9.16667 1.75872C5 1.75872 1.44167 4.67933 0 8.80199C0.639893 10.6319 1.69679 12.2249 3.03879 13.4309L0.46967 16L1.53033 17.0607L4.23701 14.354C5.68651 15.3022 7.37003 15.8453 9.16667 15.8453C13.3333 15.8453 16.8917 12.9247 18.3333 8.80199C17.6197 6.76119 16.3873 5.01494 14.8193 3.77171ZM12.1888 4.2809C11.2476 3.86211 10.2263 3.63693 9.16667 3.63693C7.94067 3.63693 6.76616 3.93834 5.70747 4.49227C4.03883 5.36533 2.65792 6.86571 1.81667 8.80199C2.40766 10.1622 3.26344 11.3074 4.29865 12.171L5.80248 10.6672C5.55554 10.1042 5.41667 9.47093 5.41667 8.80199C5.41667 7.58982 5.87267 6.49466 6.6014 5.72309C7.27278 5.01223 8.17565 4.57603 9.16667 4.57603C9.91939 4.57603 10.6213 4.82768 11.2095 5.2602L12.1888 4.2809ZM12.2273 6.36369L13.5385 5.05253C14.7967 5.94738 15.8342 7.23126 16.5167 8.80199C15.6741 10.7413 14.2933 12.2434 12.6216 13.1159C11.5653 13.6672 10.3928 13.9671 9.16667 13.9671C7.94051 13.9671 6.76807 13.6672 5.71177 13.1159C5.66015 13.0889 5.6088 13.0614 5.55774 13.0332L6.65472 11.9363C7.32022 12.6143 8.20165 13.028 9.16667 13.028C10.1562 13.028 11.0578 12.5931 11.7289 11.8841C12.4594 11.1123 12.9167 10.0158 12.9167 8.80199C12.9167 7.89483 12.6613 7.0532 12.2273 6.36369ZM9.87576 6.59391C9.6544 6.50352 9.41561 6.45424 9.16667 6.45424C8.01667 6.45424 7.08333 7.50603 7.08333 8.80199C7.08333 8.98452 7.10185 9.16221 7.13687 9.33279L9.87576 6.59391ZM7.91362 10.6774L10.9682 7.62275C11.1474 7.96935 11.25 8.37225 11.25 8.80199C11.25 10.098 10.3167 11.1497 9.16667 11.1497C8.69642 11.1497 8.26241 10.9739 7.91362 10.6774Z" fill="#6F6E71"/>
</svg>
