<svg width="14" height="15" viewBox="0 0 14 15" fill="none" xmlns="http://www.w3.org/2000/svg">
<path fill-rule="evenodd" clip-rule="evenodd" d="M0.21967 12.9697C-0.0732233 13.2626 -0.0732233 13.7374 0.21967 14.0303C0.512563 14.3232 0.987437 14.3232 1.28033 14.0303L6.75 8.56066L12.2197 14.0303C12.5126 14.3232 12.9874 14.3232 13.2803 14.0303C13.5732 13.7374 13.5732 13.2626 13.2803 12.9697L7.81066 7.5L13.2803 2.03033C13.5732 1.73744 13.5732 1.26256 13.2803 0.96967C12.9874 0.676777 12.5126 0.676777 12.2197 0.96967L6.75 6.43934L1.28033 0.96967C0.987437 0.676777 0.512563 0.676777 0.21967 0.96967C-0.0732233 1.26256 -0.0732233 1.73744 0.21967 2.03033L5.68934 7.5L0.21967 12.9697Z" fill="#3A373D"/>
</svg>
