<svg width="19" height="18" viewBox="0 0 19 18" fill="none" xmlns="http://www.w3.org/2000/svg">
<path fill-rule="evenodd" clip-rule="evenodd" d="M15.2322 3.35878L17.5303 1.0606L16.4697 -5.66244e-05L14.0247 2.44489C12.5915 1.52533 10.9338 1 9.16667 1C5 1 1.44167 3.92061 0 8.04327C0.703681 10.0556 1.91165 11.7815 3.44849 13.0211L0.46967 15.9999L1.53033 17.0606L4.70713 13.8838C6.04577 14.6528 7.56105 15.0865 9.16667 15.0865C13.3333 15.0865 16.8917 12.1659 18.3333 8.04327C17.6836 6.18514 16.6038 4.57119 15.2322 3.35878ZM12.6979 3.77172C11.6206 3.19348 10.4205 2.87821 9.16667 2.87821C6.00833 2.87821 3.19167 4.87849 1.81667 8.04327C2.48697 9.58609 3.49792 10.8522 4.72495 11.7447L6.06108 10.4085C5.65448 9.73301 5.41667 8.91865 5.41667 8.04327C5.41667 5.71429 7.1 3.81731 9.16667 3.81731C10.1034 3.81731 10.9614 4.20703 11.6196 4.85006L12.6979 3.77172ZM12.4942 6.09674L13.9688 4.62209C15.0335 5.49157 15.9137 6.65545 16.5167 8.04327C15.1417 11.208 12.3333 13.2083 9.16667 13.2083C8.0745 13.2083 7.02495 12.9704 6.06213 12.5288L7.05654 11.5344C7.65819 11.9979 8.38501 12.2692 9.16667 12.2692C11.2333 12.2692 12.9167 10.3722 12.9167 8.04327C12.9167 7.34191 12.764 6.67973 12.4942 6.09674ZM10.3548 6.11485C10.0177 5.85052 9.60815 5.69551 9.16667 5.69551C8.01667 5.69551 7.08333 6.74731 7.08333 8.04327C7.08333 8.44077 7.17114 8.81529 7.32607 9.14355L10.3548 6.11485ZM8.37538 10.2156L11.1748 7.41618C11.2238 7.61582 11.25 7.82612 11.25 8.04327C11.25 9.33923 10.3167 10.391 9.16667 10.391C8.8866 10.391 8.61939 10.3286 8.37538 10.2156Z" fill="#6F6E71"/>
</svg>
