<svg width="19" height="20" viewBox="0 0 19 20" fill="none" xmlns="http://www.w3.org/2000/svg">
<path fill-rule="evenodd" clip-rule="evenodd" d="M6.61047 0.87793C4.44347 0.87793 2.73146 1.30674 1.58014 2.45806C0.428806 3.60939 0 5.3214 0 7.4884V12.5117C0 14.6786 0.428806 16.3907 1.58014 17.542C2.73146 18.6933 4.44347 19.1221 6.61047 19.1221H11.6337C13.8007 19.1221 15.5127 18.6933 16.6641 17.542C17.8154 16.3907 18.2442 14.6786 18.2442 12.5117V7.4884C18.2442 5.3214 17.8154 3.60939 16.6641 2.45806C15.5127 1.30674 13.8007 0.87793 11.6337 0.87793H6.61047ZM1.5 7.4884C1.5 5.46934 1.9084 4.25112 2.6408 3.51872C3.37319 2.78633 4.59141 2.37793 6.61047 2.37793H11.6337C13.6528 2.37793 14.871 2.78633 15.6034 3.51872C16.3358 4.25112 16.7442 5.46934 16.7442 7.4884V12.5117C16.7442 14.5307 16.3358 15.7489 15.6034 16.4813C14.871 17.2137 13.6528 17.6221 11.6337 17.6221H6.61047C4.59141 17.6221 3.37319 17.2137 2.6408 16.4813C1.9084 15.7489 1.5 14.5307 1.5 12.5117V7.4884ZM9.96764 5.0558C8.88084 5.0558 7.83837 5.48673 7.06878 6.25411L7.06801 6.25487L5.04219 8.28069L5.04196 8.28092C4.7056 8.61705 4.43876 9.01617 4.25668 9.45547C4.07457 9.89486 3.98083 10.3658 3.98083 10.8415C3.98083 11.3171 4.07457 11.7881 4.25668 12.2275C4.4388 12.6669 4.70572 13.0661 5.04219 13.4023C5.33521 13.695 5.81008 13.6948 6.10285 13.4018C6.39562 13.1088 6.39542 12.6339 6.1024 12.3412C5.90535 12.1443 5.74903 11.9105 5.64238 11.6532C5.53573 11.3958 5.48083 11.12 5.48083 10.8415C5.48083 10.5629 5.53573 10.2871 5.64238 10.0298C5.74903 9.77247 5.90535 9.53868 6.1024 9.3418L6.10262 9.34158L8.12791 7.31629L8.12829 7.31591C8.61667 6.82914 9.27809 6.5558 9.96764 6.5558C10.657 6.5558 11.3183 6.829 11.8066 7.31555C12.2932 7.80389 12.5663 8.46514 12.5663 9.1545C12.5663 9.84402 12.293 10.5054 11.8063 10.9938L11.8059 10.9942L9.94801 12.8521C9.58788 13.2122 8.9995 13.2122 8.63937 12.8521C8.27924 12.4919 8.27924 11.9036 8.63937 11.5434L9.81983 10.363C10.1127 10.0701 10.1127 9.59521 9.81983 9.30231C9.52694 9.00942 9.05207 9.00942 8.75917 9.30231L7.57871 10.4828C6.63279 11.4287 6.63279 12.9668 7.57871 13.9127C8.52462 14.8587 10.0628 14.8587 11.0087 13.9127L12.8673 12.0541L12.868 12.0534C13.6354 11.2838 14.0663 10.2413 14.0663 9.1545C14.0663 8.06769 13.6354 7.02523 12.868 6.25563L12.8665 6.25411C12.0969 5.48673 11.0545 5.0558 9.96764 5.0558Z" fill="#643ABE"/>
</svg>
