<svg width="18" height="18" viewBox="0 0 18 18" fill="none" xmlns="http://www.w3.org/2000/svg">
<path fill-rule="evenodd" clip-rule="evenodd" d="M1.50455 1.84782C2.60356 0.748812 4.23417 0.343262 6.28488 0.343262H9.44767C9.86189 0.343262 10.1977 0.679048 10.1977 1.09326C10.1977 1.50748 9.86189 1.84326 9.44767 1.84326H6.28488C4.38211 1.84326 3.24528 2.22841 2.56521 2.90848C1.88515 3.58854 1.5 4.72537 1.5 6.62815V11.3723C1.5 12.1401 1.56271 12.7832 1.68219 13.3218L4.75978 11.2556L4.76 11.2554C5.65774 10.6531 6.93068 10.7127 7.75404 11.42L7.7604 11.4255L7.76037 11.4255L8.0176 11.6516C8.35369 11.9376 8.93251 11.9369 9.26729 11.6493L9.26755 11.6491L12.5566 8.82651L12.5569 8.82628C13.4547 8.05532 14.866 8.05538 15.7637 8.82648L15.7638 8.82651L15.814 8.86963V7.41884C15.814 7.00463 16.1497 6.66884 16.564 6.66884C16.9782 6.66884 17.314 7.00463 17.314 7.41884V11.3723C17.314 13.423 16.9084 15.0537 15.8094 16.1527C14.7104 17.2517 13.0798 17.6572 11.0291 17.6572H6.28488C4.23417 17.6572 2.60356 17.2517 1.50455 16.1527C0.40555 15.0537 0 13.423 0 11.3723V6.62815C0 4.57743 0.40555 2.94682 1.50455 1.84782ZM15.814 10.847L14.7864 9.96438L14.7864 9.96436C14.4507 9.67602 13.8697 9.67602 13.534 9.96436L13.5337 9.96459L10.2447 12.7872L10.2444 12.7874C9.34659 13.5583 7.93525 13.5583 7.03752 12.7872L7.0311 12.7816L7.03113 12.7816L6.7739 12.5555C6.47406 12.3004 5.94645 12.2659 5.59591 12.5009L5.59582 12.501L5.59569 12.501L2.26666 14.7362C2.35866 14.8669 2.45829 14.9851 2.56521 15.092C3.24528 15.7721 4.38211 16.1572 6.28488 16.1572H11.0291C12.9318 16.1572 14.0687 15.7721 14.7487 15.092C15.4288 14.4119 15.814 13.2751 15.814 11.3723V10.847ZM4.63634 4.1889C5.07356 3.75168 5.66656 3.50605 6.28488 3.50605C6.90321 3.50605 7.49621 3.75168 7.93343 4.1889C8.37065 4.62612 8.61628 5.21912 8.61628 5.83745C8.61628 6.45577 8.37065 7.04877 7.93343 7.48599C7.49621 7.92321 6.90321 8.16884 6.28488 8.16884C5.66656 8.16884 5.07356 7.92321 4.63634 7.48599C4.19912 7.04877 3.95349 6.45577 3.95349 5.83745C3.95349 5.21912 4.19912 4.62612 4.63634 4.1889ZM6.28488 5.00605C6.06438 5.00605 5.85292 5.09365 5.697 5.24956C5.54108 5.40548 5.45349 5.61695 5.45349 5.83745C5.45349 6.05795 5.54108 6.26942 5.697 6.42533C5.85292 6.58125 6.06438 6.66884 6.28488 6.66884C6.50538 6.66884 6.71685 6.58125 6.87277 6.42533C7.02869 6.26942 7.11628 6.05795 7.11628 5.83745C7.11628 5.61695 7.02869 5.40548 6.87277 5.24956C6.71685 5.09365 6.50538 5.00605 6.28488 5.00605ZM16.5882 2.05832C16.8811 1.76543 16.8811 1.29055 16.5882 0.997661C16.2953 0.704768 15.8204 0.704768 15.5275 0.997661L12.9741 3.55105L12.35 2.92696C12.0571 2.63407 11.5823 2.63407 11.2894 2.92696C10.9965 3.21986 10.9965 3.69473 11.2894 3.98762L12.4438 5.14204C12.5844 5.28269 12.7752 5.36171 12.9741 5.36171C13.173 5.36171 13.3638 5.28269 13.5045 5.14204L16.5882 2.05832Z" fill="#27AE60"/>
</svg>
