<svg width="40" height="40" viewBox="0 0 40 40" fill="none" xmlns="http://www.w3.org/2000/svg">
<path d="M14.8187 32H26.1825C29.9475 32 33 28.9475 33 25.1813V13.8175C33 10.0525 29.9475 7 26.1813 7H14.8175C11.0525 7 8 10.0525 8 13.8187V25.1825C8 28.9475 11.0525 32 14.8187 32Z" stroke="white" stroke-opacity="0.6" stroke-width="2" stroke-miterlimit="10"/>
<path d="M20.5 25.75C23.9518 25.75 26.75 22.9518 26.75 19.5C26.75 16.0482 23.9518 13.25 20.5 13.25C17.0482 13.25 14.25 16.0482 14.25 19.5C14.25 22.9518 17.0482 25.75 20.5 25.75Z" stroke="white" stroke-opacity="0.6" stroke-width="2" stroke-miterlimit="10"/>
<path d="M27.8863 13.25C28.5138 13.25 29.0225 12.7413 29.0225 12.1138C29.0225 11.4863 28.5138 10.9775 27.8863 10.9775C27.2587 10.9775 26.75 11.4863 26.75 12.1138C26.75 12.7413 27.2587 13.25 27.8863 13.25Z" fill="white" fill-opacity="0.6"/>
</svg>
