<svg width="18" height="18" viewBox="0 0 18 18" fill="none" xmlns="http://www.w3.org/2000/svg">
<path d="M4.91332 13.2713L6.75297 15.1117M15.2313 11.2229C14.4503 12.0023 13.4713 12.5536 12.4001 12.8173C11.3288 13.081 10.2059 13.0471 9.1525 12.7192L5.38523 16.48C5.11328 16.7601 4.57738 16.9281 4.19346 16.8721L2.44979 16.632C1.8739 16.552 1.33801 16.0079 1.25002 15.4318L1.01007 13.6874C0.954079 13.3034 1.13804 12.7672 1.40199 12.4952L5.16127 8.73442C4.52139 6.65399 5.0173 4.29351 6.66498 2.65317C9.02453 0.292692 12.8558 0.292692 15.2233 2.65317C17.5909 5.01366 17.5909 8.86244 15.2313 11.2229Z" stroke="#6F6E71" stroke-width="1.5" stroke-miterlimit="10" stroke-linecap="round" stroke-linejoin="round"/>
<path d="M11 7.88281C11.2652 7.88281 11.5196 7.77746 11.7071 7.58992C11.8946 7.40238 12 7.14803 12 6.88281C12 6.6176 11.8946 6.36324 11.7071 6.17571C11.5196 5.98817 11.2652 5.88281 11 5.88281C10.7348 5.88281 10.4804 5.98817 10.2929 6.17571C10.1054 6.36324 10 6.6176 10 6.88281C10 7.14803 10.1054 7.40238 10.2929 7.58992C10.4804 7.77746 10.7348 7.88281 11 7.88281Z" stroke="#6F6E71" stroke-width="1.5" stroke-linecap="round" stroke-linejoin="round"/>
</svg>
