<svg width="20" height="22" viewBox="0 0 20 22" fill="none" xmlns="http://www.w3.org/2000/svg">
<path fill-rule="evenodd" clip-rule="evenodd" d="M8.63499 1.81953L8.63505 1.81949C9.37139 1.39442 10.2862 1.39227 11.0366 1.82044L11.0379 1.82118L16.97 5.24662L16.9723 5.24794C17.7154 5.68564 18.17 6.47097 18.17 7.33V14.17C18.17 15.0204 17.7142 15.815 16.9723 16.2521L16.97 16.2534L11.035 19.6805L11.035 19.6805C10.2987 20.1055 9.38393 20.1077 8.63362 19.6797L8.63211 19.6788L2.69619 16.2512L2.69563 16.2508C2.33152 16.0396 2.02937 15.7363 1.81951 15.3714C1.60954 15.0063 1.49935 14.5923 1.5 14.1712L1.5 14.17V7.33C1.5 6.47967 1.95577 5.68502 2.69769 5.24797L8.63499 1.81953ZM11.7821 0.518818C10.5727 -0.172258 9.08824 -0.174172 7.88502 0.520472L7.88496 0.520507L1.94496 3.95051L1.94495 3.95049L1.94003 3.95338C0.743296 4.65661 3.78687e-06 5.94121 3.78687e-06 7.33V14.1695V14.17H0.750004L4.74055e-06 14.1688L3.78687e-06 14.1695C-0.00094953 14.8537 0.178106 15.5261 0.519199 16.1192C0.8604 16.7125 1.35172 17.2055 1.94381 17.5488L1.94496 17.5495L7.88496 20.9795L7.8879 20.9812C9.09728 21.6723 10.5818 21.6742 11.785 20.9795L11.785 20.9795L17.725 17.5495L17.7251 17.5495L17.73 17.5466C18.9267 16.8434 19.67 15.5588 19.67 14.17V7.33C19.67 5.92989 18.9256 4.65594 17.73 3.95338L17.73 3.95336L17.725 3.95051L11.785 0.520507L11.7851 0.5205L11.7821 0.518818ZM10.59 6.5C10.59 6.08579 10.2542 5.75 9.84 5.75C9.42579 5.75 9.09 6.08579 9.09 6.5V11.75C9.09 12.1642 9.42579 12.5 9.84 12.5C10.2542 12.5 10.59 12.1642 10.59 11.75V6.5ZM10.8401 14.9502C10.8401 14.3979 10.3924 13.9502 9.84009 13.9502C9.2878 13.9502 8.84009 14.3979 8.84009 14.9502V15.0502C8.84009 15.6025 9.2878 16.0502 9.84009 16.0502C10.3924 16.0502 10.8401 15.6025 10.8401 15.0502V14.9502Z" fill="#6F6E71"/>
</svg>
