<svg width="20" height="22" viewBox="0 0 20 22" fill="none" xmlns="http://www.w3.org/2000/svg">
<path fill-rule="evenodd" clip-rule="evenodd" d="M8.63499 1.81941L8.63505 1.81937C9.37139 1.3943 10.2862 1.39215 11.0366 1.82031L11.0379 1.82106L16.97 5.2465L16.9723 5.24782C17.7154 5.68552 18.17 6.47085 18.17 7.32988V14.1699C18.17 15.0202 17.7142 15.8149 16.9723 16.2519L16.97 16.2533L11.035 19.6803L11.035 19.6804C10.2987 20.1054 9.38394 20.1076 8.63362 19.6796L8.63211 19.6787L2.6962 16.251L2.69564 16.2507C2.33152 16.0395 2.02937 15.7362 1.81951 15.3713C1.60954 15.0062 1.49935 14.5922 1.50001 14.171L1.50001 14.1699V7.32988C1.50001 6.47954 1.95578 5.6849 2.69769 5.24785L8.63499 1.81941ZM11.7821 0.518696C10.5727 -0.17238 9.08825 -0.174294 7.88502 0.520351L7.88496 0.520385L1.94496 3.95038L1.94495 3.95037L1.94003 3.95326C0.7433 4.65649 7.80821e-06 5.94109 7.80821e-06 7.32988V14.1694V14.1699H0.750008L8.76188e-06 14.1687L7.80821e-06 14.1694C-0.000945508 14.8535 0.17811 15.5259 0.519203 16.1191C0.860404 16.7124 1.35173 17.2054 1.94382 17.5487L1.94496 17.5494L7.88496 20.9794L7.8879 20.9811C9.09729 21.6721 10.5818 21.674 11.785 20.9794L11.7851 20.9794L17.7251 17.5494L17.7251 17.5494L17.73 17.5465C18.9267 16.8433 19.67 15.5587 19.67 14.1699V7.32988C19.67 5.92977 18.9256 4.65582 17.73 3.95326L17.73 3.95324L17.7251 3.95038L11.7851 0.520385L11.7851 0.520378L11.7821 0.518696ZM10.59 6.49988C10.59 6.08566 10.2542 5.74988 9.84001 5.74988C9.42579 5.74988 9.09001 6.08566 9.09001 6.49988V11.7499C9.09001 12.1641 9.42579 12.4999 9.84001 12.4999C10.2542 12.4999 10.59 12.1641 10.59 11.7499V6.49988ZM10.8401 14.9501C10.8401 14.3978 10.3924 13.9501 9.84009 13.9501C9.28781 13.9501 8.84009 14.3978 8.84009 14.9501V15.0501C8.84009 15.6024 9.28781 16.0501 9.84009 16.0501C10.3924 16.0501 10.8401 15.6024 10.8401 15.0501V14.9501Z" fill="white"/>
</svg>
