<svg width="18" height="18" viewBox="0 0 18 18" fill="none" xmlns="http://www.w3.org/2000/svg">
<path d="M1.62402 5.16858L8.68714 9.25607L15.7023 5.19258M8.68714 16.5032V9.24807" stroke="#6F6E71" stroke-width="1.5" stroke-linecap="round" stroke-linejoin="round"/>
<path d="M7.03125 1.20109L2.75978 3.57679C1.7919 4.11273 1 5.45656 1 6.56042V11.0799C1 12.1837 1.7919 13.5275 2.75978 14.0635L7.03125 16.4392C7.94313 16.9431 9.43894 16.9431 10.3508 16.4392L14.6223 14.0635C15.5902 13.5275 16.3821 12.1837 16.3821 11.0799V6.56042C16.3821 5.45656 15.5902 4.11273 14.6223 3.57679L10.3508 1.20109C9.43095 0.689155 7.94313 0.689155 7.03125 1.20109Z" stroke="#6F6E71" stroke-width="1.5" stroke-linecap="round" stroke-linejoin="round"/>
<path d="M12.6868 9.80803V6.8804L5.0957 2.49695" stroke="#6F6E71" stroke-width="1.5" stroke-linecap="round" stroke-linejoin="round"/>
</svg>
