<svg width="20" height="23" viewBox="0 0 20 23" fill="none" xmlns="http://www.w3.org/2000/svg">
<path d="M9.99992 6.39139C13.1583 6.39139 15.9749 8.39168 17.3499 11.5565C15.9749 14.7212 13.1666 16.7215 9.99992 16.7215C6.83325 16.7215 4.02492 14.7212 2.64992 11.5565C4.02492 8.39168 6.84158 6.39139 9.99992 6.39139ZM9.99992 4.51318C5.83325 4.51318 2.27492 7.43379 0.833252 11.5565C2.27492 15.6791 5.83325 18.5997 9.99992 18.5997C14.1666 18.5997 17.7249 15.6791 19.1666 11.5565C17.7249 7.43379 14.1666 4.51318 9.99992 4.51318ZM9.99992 9.2087C11.1499 9.2087 12.0833 10.2605 12.0833 11.5565C12.0833 12.8524 11.1499 13.9042 9.99992 13.9042C8.84992 13.9042 7.91658 12.8524 7.91658 11.5565C7.91658 10.2605 8.84992 9.2087 9.99992 9.2087ZM9.99992 7.33049C7.93325 7.33049 6.24992 9.22748 6.24992 11.5565C6.24992 13.8854 7.93325 15.7824 9.99992 15.7824C12.0666 15.7824 13.7499 13.8854 13.7499 11.5565C13.7499 9.22748 12.0666 7.33049 9.99992 7.33049Z" fill="#6F6E71"/>
</svg>
