<svg width="17" height="19" viewBox="0 0 17 19" fill="none" xmlns="http://www.w3.org/2000/svg">
<path fill-rule="evenodd" clip-rule="evenodd" d="M7.59402 0.949219C6.33854 0.949219 5.13448 1.44796 4.24673 2.33571C3.35897 3.22347 2.86023 4.42753 2.86023 5.683C2.86023 6.93848 3.35897 8.14254 4.24673 9.03029C5.13448 9.91805 6.33854 10.4168 7.59402 10.4168C8.84949 10.4168 10.0536 9.91805 10.9413 9.03029C11.8291 8.14254 12.3278 6.93848 12.3278 5.683C12.3278 4.42753 11.8291 3.22347 10.9413 2.33571C10.0536 1.44796 8.84949 0.949219 7.59402 0.949219ZM5.30739 3.39637C5.91384 2.78992 6.73636 2.44922 7.59402 2.44922C8.45167 2.44922 9.2742 2.78992 9.88065 3.39637C10.4871 4.00282 10.8278 4.82535 10.8278 5.683C10.8278 6.54066 10.4871 7.36318 9.88065 7.96963C9.2742 8.57609 8.45167 8.91679 7.59402 8.91679C6.73636 8.91679 5.91384 8.57609 5.30739 7.96963C4.70093 7.36318 4.36023 6.54066 4.36023 5.683C4.36023 4.82535 4.70093 4.00282 5.30739 3.39637ZM15.6298 12.1084C15.1768 11.6553 14.6478 11.3879 14.0588 11.4484C13.5108 11.5047 13.094 11.8307 12.8083 12.1163L12.4084 12.5162L12.3966 12.528L9.98781 14.9369C9.85971 15.065 9.76318 15.217 9.69652 15.3487C9.62987 15.4805 9.56583 15.6459 9.53829 15.8203L9.53819 15.8203L9.53643 15.8328L9.38527 16.9068L9.38514 16.9077C9.32942 17.2995 9.43189 17.7124 9.73285 18.0133C10.0338 18.3143 10.4468 18.4168 10.8385 18.361L10.8393 18.3609L11.9134 18.2097L11.9134 18.2098L11.9259 18.2079C12.0972 18.1808 12.2633 18.1182 12.3973 18.0512C12.5237 17.988 12.6835 17.8901 12.8166 17.7511L15.1315 15.4361C15.2027 15.3863 15.2655 15.324 15.3163 15.2514L15.6298 14.9378C15.9155 14.6522 16.2425 14.2343 16.297 13.6836C16.3554 13.0933 16.0849 12.5635 15.6298 12.1084ZM11.0561 15.9898L12.7265 14.3195C12.9227 14.5873 13.1584 14.8238 13.4254 15.0209L11.7495 16.6968C11.7443 16.7001 11.7365 16.7046 11.7264 16.7096C11.7119 16.7169 11.6981 16.7225 11.6877 16.7261L11.6843 16.7272L10.91 16.8362L11.0188 16.0634L11.019 16.0628C11.0221 16.0538 11.0275 16.0407 11.035 16.0259C11.0425 16.011 11.0498 15.9991 11.0551 15.9914L11.0561 15.9898ZM13.8107 13.2353C13.9725 13.5307 14.2143 13.7741 14.5085 13.9378L14.5692 13.8772C14.7695 13.6768 14.801 13.5688 14.8043 13.5359C14.8052 13.5269 14.807 13.5035 14.7847 13.4532C14.7597 13.3967 14.7013 13.3011 14.5692 13.169C14.4396 13.0395 14.3463 12.983 14.2918 12.9591C14.2435 12.9379 14.2212 12.9397 14.2121 12.9406C14.1784 12.944 14.0693 12.9766 13.869 13.177L13.8107 13.2353ZM1.5 17.6344C1.5 15.1018 4.08039 12.8071 7.59414 12.8071C8.3507 12.8071 9.07455 12.9162 9.74429 13.1178C10.1409 13.2372 10.5593 13.0125 10.6787 12.6159C10.7981 12.2193 10.5734 11.8009 10.1767 11.6815C9.3645 11.437 8.49484 11.3071 7.59414 11.3071C3.55464 11.3071 0 14.0001 0 17.6344C0 18.0486 0.335786 18.3844 0.75 18.3844C1.16421 18.3844 1.5 18.0486 1.5 17.6344Z" fill="#6F6E71"/>
</svg>
