<svg width="19" height="18" viewBox="0 0 19 18" fill="none" xmlns="http://www.w3.org/2000/svg">
<path d="M1 6.91602H8.6M4.2 12.916H5.8M7.8 12.916H11" stroke="#6F6E71" stroke-width="1.5" stroke-miterlimit="10" stroke-linecap="round" stroke-linejoin="round"/>
<path d="M18 9.94072V13.3007C18 16.1913 17.2435 16.916 14.226 16.916H4.774C1.7565 16.916 1 16.1913 1 13.3007V6.53131C1 3.64072 1.7565 2.91602 4.774 2.91602H11.625" stroke="#6F6E71" stroke-width="1.5" stroke-linecap="round" stroke-linejoin="round"/>
<path d="M15.5454 3.41592L12.4349 6.52711C12.3175 6.64451 12.2001 6.87932 12.175 7.04704L12.0073 8.23784C11.9486 8.66552 12.2504 8.96742 12.678 8.90872L13.8686 8.741C14.0362 8.71584 14.271 8.59844 14.3884 8.48103L17.4988 5.36985C18.0354 4.83315 18.2869 4.21259 17.4988 3.42431C16.7024 2.62764 16.0819 2.87922 15.5454 3.41592Z" stroke="#6F6E71" stroke-width="1.5" stroke-miterlimit="10" stroke-linecap="round" stroke-linejoin="round"/>
<path d="M15 3.91602C15.2759 4.89015 16.0345 5.64877 17 5.91602" stroke="#6F6E71" stroke-width="1.5" stroke-miterlimit="10" stroke-linecap="round" stroke-linejoin="round"/>
</svg>
