<svg width="40" height="40" viewBox="0 0 40 40" fill="none" xmlns="http://www.w3.org/2000/svg">
<path d="M31.8764 6.43628C30.9589 6.79878 4.91641 17.7788 4.91641 17.7788C4.91641 17.7788 3.65516 18.21 3.75516 19.0063C3.85516 19.8025 4.88391 20.1675 4.88391 20.1675L11.5864 22.4238C11.5864 22.4238 13.6102 29.06 14.0089 30.32C14.4077 31.5813 14.7264 31.6113 14.7264 31.6113C15.0964 31.7725 15.4352 31.515 15.4352 31.515L19.7664 27.5663L26.5177 32.7425C28.3427 33.5388 29.0064 31.88 29.0064 31.88L33.6577 8.05003C34.0702 6.20503 32.8452 6.05503 31.8764 6.43628Z" stroke="white" stroke-opacity="0.6" stroke-width="2" stroke-miterlimit="10"/>
<path d="M28.5737 12.205C28.6075 11.6413 27.8212 12.0438 27.8212 12.0438L11.4487 22.185C11.4487 22.185 13.61 29.06 14.0087 30.3213C14.4062 31.5825 14.9512 31.7975 14.9512 31.7975L16.1737 24.0175C16.1737 24.0175 27.745 13.2338 28.2425 12.7688C28.74 12.305 28.5737 12.205 28.5737 12.205Z" fill="white" fill-opacity="0.6"/>
</svg>
