<svg width="40" height="40" viewBox="0 0 40 40" fill="none" xmlns="http://www.w3.org/2000/svg">
<path fill-rule="evenodd" clip-rule="evenodd" d="M10.8525 7H28.1475C30.275 7 32 8.725 32 10.8525V28.1475C32 30.275 30.275 32 28.1475 32H10.8525C8.725 32 7 30.275 7 28.1475V10.8525C7 8.725 8.725 7 10.8525 7Z" stroke="white" stroke-opacity="0.6" stroke-width="2" stroke-miterlimit="10"/>
<path fill-rule="evenodd" clip-rule="evenodd" d="M19.2901 24.5014H20.3126C20.3126 24.5014 20.6213 24.4677 20.7788 24.2977C20.9238 24.1414 20.9188 23.8489 20.9188 23.8489C20.9188 23.8489 20.8988 22.4764 21.5351 22.2752C22.1626 22.0764 22.9688 23.6014 23.8238 24.1877C24.4701 24.6314 24.9613 24.5339 24.9613 24.5339L27.2463 24.5014C27.2463 24.5014 28.4413 24.4277 27.8751 23.4877C27.8288 23.4114 27.5451 22.7927 26.1763 21.5227C24.7438 20.1927 24.9351 20.4077 26.6613 18.1077C27.7126 16.7064 28.1326 15.8514 28.0013 15.4852C27.8763 15.1364 27.1026 15.2289 27.1026 15.2289L24.5301 15.2452C24.5301 15.2452 24.3388 15.2189 24.1976 15.3039C24.0588 15.3864 23.9701 15.5802 23.9701 15.5802C23.9701 15.5802 23.5626 16.6639 23.0201 17.5864C21.8751 19.5314 21.4163 19.6339 21.2288 19.5139C20.7926 19.2327 20.9026 18.3827 20.9026 17.7802C20.9026 15.8952 21.1888 15.1089 20.3463 14.9052C20.0663 14.8377 19.8613 14.7927 19.1451 14.7852C18.2276 14.7764 17.4501 14.7877 17.0101 15.0039C16.7176 15.1477 16.4913 15.4664 16.6288 15.4852C16.7988 15.5077 17.1838 15.5889 17.3876 15.8664C17.6513 16.2252 17.6426 17.0302 17.6426 17.0302C17.6426 17.0302 17.7938 19.2489 17.2888 19.5252C16.9426 19.7139 16.4663 19.3277 15.4451 17.5639C14.9213 16.6602 14.5263 15.6602 14.5263 15.6602C14.5263 15.6602 14.4501 15.4739 14.3138 15.3739C14.1488 15.2527 13.9188 15.2139 13.9188 15.2139L11.4738 15.2302C11.4738 15.2302 11.1063 15.2402 10.9726 15.4002C10.8526 15.5427 10.9626 15.8352 10.9626 15.8352C10.9626 15.8352 12.8763 20.3127 15.0438 22.5689C17.0338 24.6364 19.2901 24.5014 19.2901 24.5014Z" fill="white" fill-opacity="0.6"/>
</svg>
